<mxfile host="app.diagrams.net" agent="Mozilla/5.0 (Windows NT 10.0; Win64; x64) AppleWebKit/537.36 (KHTML, like Gecko) Chrome/131.0.0.0 Safari/537.36" version="24.9.0">
  <diagram id="C5RBs43oDa-KdzZeNtuy" name="Page-1">
    <mxGraphModel dx="1577" dy="373" grid="1" gridSize="10" guides="1" tooltips="1" connect="1" arrows="1" fold="1" page="1" pageScale="1" pageWidth="827" pageHeight="1169" math="0" shadow="0">
      <root>
        <mxCell id="WIyWlLk6GJQsqaUBKTNV-0" />
        <mxCell id="WIyWlLk6GJQsqaUBKTNV-1" parent="WIyWlLk6GJQsqaUBKTNV-0" />
        <mxCell id="M7CGMbNuYNeq0SnUNNgH-6" value="ทบทวนสัญลักษณ์" style="swimlane;fontFamily=Sarabun;fontSource=https%3A%2F%2Ffonts.googleapis.com%2Fcss%3Ffamily%3DSarabun;" parent="WIyWlLk6GJQsqaUBKTNV-1" vertex="1">
          <mxGeometry x="-720" y="20" width="650" height="290" as="geometry" />
        </mxCell>
        <mxCell id="M7CGMbNuYNeq0SnUNNgH-2" value="&lt;font data-font-src=&quot;https://fonts.googleapis.com/css?family=Sarabun&quot; face=&quot;Sarabun&quot;&gt;เริ่มต้น&lt;/font&gt;" style="ellipse;whiteSpace=wrap;html=1;" parent="M7CGMbNuYNeq0SnUNNgH-6" vertex="1">
          <mxGeometry x="20" y="40" width="130" height="30" as="geometry" />
        </mxCell>
        <mxCell id="M7CGMbNuYNeq0SnUNNgH-5" value="" style="endArrow=classic;html=1;rounded=0;" parent="M7CGMbNuYNeq0SnUNNgH-6" edge="1">
          <mxGeometry width="50" height="50" relative="1" as="geometry">
            <mxPoint x="84.5" y="70" as="sourcePoint" />
            <mxPoint x="84.5" y="120" as="targetPoint" />
          </mxGeometry>
        </mxCell>
        <mxCell id="M7CGMbNuYNeq0SnUNNgH-3" value="&lt;font face=&quot;Sarabun&quot;&gt;สิ้นสุด&lt;/font&gt;" style="ellipse;whiteSpace=wrap;html=1;" parent="M7CGMbNuYNeq0SnUNNgH-6" vertex="1">
          <mxGeometry x="150" y="90" width="130" height="30" as="geometry" />
        </mxCell>
        <mxCell id="M7CGMbNuYNeq0SnUNNgH-4" value="" style="endArrow=classic;html=1;rounded=0;" parent="M7CGMbNuYNeq0SnUNNgH-6" edge="1">
          <mxGeometry width="50" height="50" relative="1" as="geometry">
            <mxPoint x="214.5" y="40" as="sourcePoint" />
            <mxPoint x="214.5" y="90" as="targetPoint" />
          </mxGeometry>
        </mxCell>
        <mxCell id="mvioNwK95yMqdUQ73LqQ-0" value="กระบวนการ" style="rounded=0;whiteSpace=wrap;html=1;fontFamily=Sarabun;fontSource=https%3A%2F%2Ffonts.googleapis.com%2Fcss%3Ffamily%3DSarabun;" parent="M7CGMbNuYNeq0SnUNNgH-6" vertex="1">
          <mxGeometry x="320" y="70" width="120" height="30" as="geometry" />
        </mxCell>
        <mxCell id="mvioNwK95yMqdUQ73LqQ-1" value="" style="endArrow=classic;html=1;rounded=0;" parent="M7CGMbNuYNeq0SnUNNgH-6" edge="1">
          <mxGeometry width="50" height="50" relative="1" as="geometry">
            <mxPoint x="379" y="40" as="sourcePoint" />
            <mxPoint x="379.5" y="70" as="targetPoint" />
          </mxGeometry>
        </mxCell>
        <mxCell id="mvioNwK95yMqdUQ73LqQ-2" value="" style="endArrow=classic;html=1;rounded=0;" parent="M7CGMbNuYNeq0SnUNNgH-6" edge="1">
          <mxGeometry width="50" height="50" relative="1" as="geometry">
            <mxPoint x="379.75" y="100" as="sourcePoint" />
            <mxPoint x="380.25" y="130" as="targetPoint" />
          </mxGeometry>
        </mxCell>
        <mxCell id="mvioNwK95yMqdUQ73LqQ-3" value="ประโยคเงื่อนไข" style="rhombus;whiteSpace=wrap;html=1;fontFamily=Sarabun;fontSource=https%3A%2F%2Ffonts.googleapis.com%2Fcss%3Ffamily%3DSarabun;" parent="M7CGMbNuYNeq0SnUNNgH-6" vertex="1">
          <mxGeometry x="490" y="60" width="100" height="60" as="geometry" />
        </mxCell>
        <mxCell id="mvioNwK95yMqdUQ73LqQ-4" value="" style="endArrow=classic;html=1;rounded=0;" parent="M7CGMbNuYNeq0SnUNNgH-6" edge="1">
          <mxGeometry width="50" height="50" relative="1" as="geometry">
            <mxPoint x="539.71" y="30" as="sourcePoint" />
            <mxPoint x="540.21" y="60" as="targetPoint" />
          </mxGeometry>
        </mxCell>
        <mxCell id="mvioNwK95yMqdUQ73LqQ-5" value="" style="endArrow=classic;html=1;rounded=0;" parent="M7CGMbNuYNeq0SnUNNgH-6" edge="1">
          <mxGeometry width="50" height="50" relative="1" as="geometry">
            <mxPoint x="539.71" y="120" as="sourcePoint" />
            <mxPoint x="540" y="175" as="targetPoint" />
          </mxGeometry>
        </mxCell>
        <mxCell id="mvioNwK95yMqdUQ73LqQ-7" value="จริง" style="edgeLabel;html=1;align=center;verticalAlign=middle;resizable=0;points=[];fontFamily=Sarabun;fontSource=https%3A%2F%2Ffonts.googleapis.com%2Fcss%3Ffamily%3DSarabun;" parent="mvioNwK95yMqdUQ73LqQ-5" vertex="1" connectable="0">
          <mxGeometry x="-0.4142" y="-1" relative="1" as="geometry">
            <mxPoint as="offset" />
          </mxGeometry>
        </mxCell>
        <mxCell id="mvioNwK95yMqdUQ73LqQ-6" value="" style="endArrow=classic;html=1;rounded=0;exitX=1;exitY=0.5;exitDx=0;exitDy=0;" parent="M7CGMbNuYNeq0SnUNNgH-6" source="mvioNwK95yMqdUQ73LqQ-3" edge="1">
          <mxGeometry width="50" height="50" relative="1" as="geometry">
            <mxPoint x="620" y="95" as="sourcePoint" />
            <mxPoint x="610" y="175" as="targetPoint" />
            <Array as="points">
              <mxPoint x="610" y="90" />
            </Array>
          </mxGeometry>
        </mxCell>
        <mxCell id="mvioNwK95yMqdUQ73LqQ-8" value="&lt;font data-font-src=&quot;https://fonts.googleapis.com/css?family=Sarabun&quot; face=&quot;Sarabun&quot;&gt;เท็จ&lt;/font&gt;" style="edgeLabel;html=1;align=center;verticalAlign=middle;resizable=0;points=[];" parent="mvioNwK95yMqdUQ73LqQ-6" vertex="1" connectable="0">
          <mxGeometry x="-0.0019" y="-2" relative="1" as="geometry">
            <mxPoint as="offset" />
          </mxGeometry>
        </mxCell>
        <mxCell id="mvioNwK95yMqdUQ73LqQ-9" value="&lt;font data-font-src=&quot;https://fonts.googleapis.com/css?family=Sarabun&quot; face=&quot;Sarabun&quot;&gt;ฟังก์ชัน/โมดูล&lt;/font&gt;" style="shape=process;whiteSpace=wrap;html=1;backgroundOutline=1;" parent="M7CGMbNuYNeq0SnUNNgH-6" vertex="1">
          <mxGeometry x="25" y="180" width="120" height="30" as="geometry" />
        </mxCell>
        <mxCell id="mvioNwK95yMqdUQ73LqQ-11" value="" style="endArrow=classic;html=1;rounded=0;" parent="M7CGMbNuYNeq0SnUNNgH-6" edge="1">
          <mxGeometry width="50" height="50" relative="1" as="geometry">
            <mxPoint x="84.70999999999998" y="150" as="sourcePoint" />
            <mxPoint x="85.20999999999998" y="180" as="targetPoint" />
          </mxGeometry>
        </mxCell>
        <mxCell id="mvioNwK95yMqdUQ73LqQ-12" value="" style="endArrow=classic;html=1;rounded=0;" parent="M7CGMbNuYNeq0SnUNNgH-6" edge="1">
          <mxGeometry width="50" height="50" relative="1" as="geometry">
            <mxPoint x="84.70999999999998" y="210" as="sourcePoint" />
            <mxPoint x="85.20999999999998" y="240" as="targetPoint" />
          </mxGeometry>
        </mxCell>
        <mxCell id="mvioNwK95yMqdUQ73LqQ-13" value="" style="strokeWidth=2;html=1;shape=mxgraph.flowchart.start_2;whiteSpace=wrap;" parent="M7CGMbNuYNeq0SnUNNgH-6" vertex="1">
          <mxGeometry x="205" y="185" width="20" height="20" as="geometry" />
        </mxCell>
        <mxCell id="mvioNwK95yMqdUQ73LqQ-16" value="" style="endArrow=classic;html=1;rounded=0;" parent="M7CGMbNuYNeq0SnUNNgH-6" edge="1">
          <mxGeometry width="50" height="50" relative="1" as="geometry">
            <mxPoint x="214.70999999999998" y="155" as="sourcePoint" />
            <mxPoint x="215.20999999999998" y="185" as="targetPoint" />
          </mxGeometry>
        </mxCell>
        <mxCell id="mvioNwK95yMqdUQ73LqQ-17" value="" style="endArrow=classic;html=1;rounded=0;entryX=0;entryY=0.5;entryDx=0;entryDy=0;entryPerimeter=0;" parent="M7CGMbNuYNeq0SnUNNgH-6" target="mvioNwK95yMqdUQ73LqQ-13" edge="1">
          <mxGeometry width="50" height="50" relative="1" as="geometry">
            <mxPoint x="189.99999999999997" y="155" as="sourcePoint" />
            <mxPoint x="190.49999999999997" y="185" as="targetPoint" />
            <Array as="points">
              <mxPoint x="190" y="180" />
            </Array>
          </mxGeometry>
        </mxCell>
        <mxCell id="mvioNwK95yMqdUQ73LqQ-18" value="" style="endArrow=classic;html=1;rounded=0;entryX=1;entryY=0.5;entryDx=0;entryDy=0;entryPerimeter=0;" parent="M7CGMbNuYNeq0SnUNNgH-6" target="mvioNwK95yMqdUQ73LqQ-13" edge="1">
          <mxGeometry width="50" height="50" relative="1" as="geometry">
            <mxPoint x="239.99999999999997" y="155" as="sourcePoint" />
            <mxPoint x="240.49999999999997" y="185" as="targetPoint" />
            <Array as="points">
              <mxPoint x="240" y="180" />
            </Array>
          </mxGeometry>
        </mxCell>
        <mxCell id="mvioNwK95yMqdUQ73LqQ-19" value="" style="endArrow=classic;html=1;rounded=0;" parent="M7CGMbNuYNeq0SnUNNgH-6" edge="1">
          <mxGeometry width="50" height="50" relative="1" as="geometry">
            <mxPoint x="214.70999999999998" y="205" as="sourcePoint" />
            <mxPoint x="215.20999999999998" y="235" as="targetPoint" />
          </mxGeometry>
        </mxCell>
        <mxCell id="mvioNwK95yMqdUQ73LqQ-20" value="&lt;font data-font-src=&quot;https://fonts.googleapis.com/css?family=Sarabun&quot; face=&quot;Sarabun&quot;&gt;ตัวเชื่อม&lt;/font&gt;" style="text;html=1;align=center;verticalAlign=middle;resizable=0;points=[];autosize=1;strokeColor=none;fillColor=none;" parent="M7CGMbNuYNeq0SnUNNgH-6" vertex="1">
          <mxGeometry x="220" y="190" width="60" height="30" as="geometry" />
        </mxCell>
        <mxCell id="mvioNwK95yMqdUQ73LqQ-25" value="" style="endArrow=classic;html=1;rounded=0;" parent="M7CGMbNuYNeq0SnUNNgH-6" edge="1">
          <mxGeometry width="50" height="50" relative="1" as="geometry">
            <mxPoint x="353.71" y="165" as="sourcePoint" />
            <mxPoint x="354.21" y="195" as="targetPoint" />
          </mxGeometry>
        </mxCell>
        <mxCell id="mvioNwK95yMqdUQ73LqQ-21" value="" style="verticalLabelPosition=bottom;verticalAlign=top;html=1;shape=offPageConnector;rounded=0;size=0.5;" parent="M7CGMbNuYNeq0SnUNNgH-6" vertex="1">
          <mxGeometry x="339" y="195" width="30" height="30" as="geometry" />
        </mxCell>
        <mxCell id="mvioNwK95yMqdUQ73LqQ-26" value="" style="endArrow=classic;html=1;rounded=0;" parent="M7CGMbNuYNeq0SnUNNgH-6" edge="1">
          <mxGeometry width="50" height="50" relative="1" as="geometry">
            <mxPoint x="405.71" y="195" as="sourcePoint" />
            <mxPoint x="406.21" y="225" as="targetPoint" />
          </mxGeometry>
        </mxCell>
        <mxCell id="mvioNwK95yMqdUQ73LqQ-27" value="" style="verticalLabelPosition=bottom;verticalAlign=top;html=1;shape=offPageConnector;rounded=0;size=0.5;" parent="M7CGMbNuYNeq0SnUNNgH-6" vertex="1">
          <mxGeometry x="391" y="165" width="30" height="30" as="geometry" />
        </mxCell>
        <mxCell id="mvioNwK95yMqdUQ73LqQ-28" value="หน้าต่อไป" style="text;html=1;align=center;verticalAlign=middle;resizable=0;points=[];autosize=1;strokeColor=none;fillColor=none;fontFamily=Sarabun;fontSource=https%3A%2F%2Ffonts.googleapis.com%2Fcss%3Ffamily%3DSarabun;" parent="M7CGMbNuYNeq0SnUNNgH-6" vertex="1">
          <mxGeometry x="345" y="220" width="70" height="30" as="geometry" />
        </mxCell>
        <mxCell id="mvioNwK95yMqdUQ73LqQ-29" value="ก" style="text;html=1;align=center;verticalAlign=middle;resizable=0;points=[];autosize=1;strokeColor=none;fillColor=none;fontFamily=Sarabun;fontSource=https%3A%2F%2Ffonts.googleapis.com%2Fcss%3Ffamily%3DSarabun;" parent="M7CGMbNuYNeq0SnUNNgH-6" vertex="1">
          <mxGeometry x="339" y="190" width="30" height="30" as="geometry" />
        </mxCell>
        <mxCell id="mvioNwK95yMqdUQ73LqQ-30" value="ก" style="text;html=1;align=center;verticalAlign=middle;resizable=0;points=[];autosize=1;strokeColor=none;fillColor=none;fontFamily=Sarabun;fontSource=https%3A%2F%2Ffonts.googleapis.com%2Fcss%3Ffamily%3DSarabun;" parent="M7CGMbNuYNeq0SnUNNgH-6" vertex="1">
          <mxGeometry x="391" y="160" width="30" height="30" as="geometry" />
        </mxCell>
        <mxCell id="mvioNwK95yMqdUQ73LqQ-32" value="แสดงผล/รับค่า" style="shape=parallelogram;perimeter=parallelogramPerimeter;whiteSpace=wrap;html=1;fixedSize=1;fontFamily=Sarabun;fontSource=https%3A%2F%2Ffonts.googleapis.com%2Fcss%3Ffamily%3DSarabun;" parent="M7CGMbNuYNeq0SnUNNgH-6" vertex="1">
          <mxGeometry x="450" y="210" width="120" height="30" as="geometry" />
        </mxCell>
        <mxCell id="mvioNwK95yMqdUQ73LqQ-33" value="" style="endArrow=classic;html=1;rounded=0;" parent="M7CGMbNuYNeq0SnUNNgH-6" edge="1">
          <mxGeometry width="50" height="50" relative="1" as="geometry">
            <mxPoint x="509.71" y="180" as="sourcePoint" />
            <mxPoint x="510.21" y="210" as="targetPoint" />
          </mxGeometry>
        </mxCell>
        <mxCell id="mvioNwK95yMqdUQ73LqQ-34" value="" style="endArrow=classic;html=1;rounded=0;" parent="M7CGMbNuYNeq0SnUNNgH-6" edge="1">
          <mxGeometry width="50" height="50" relative="1" as="geometry">
            <mxPoint x="509.71" y="240" as="sourcePoint" />
            <mxPoint x="510.21" y="270" as="targetPoint" />
          </mxGeometry>
        </mxCell>
        <mxCell id="mvioNwK95yMqdUQ73LqQ-36" value="แก้ไขโจทย์ปัญหา" style="swimlane;fontFamily=Sarabun;fontSource=https%3A%2F%2Ffonts.googleapis.com%2Fcss%3Ffamily%3DSarabun;" parent="WIyWlLk6GJQsqaUBKTNV-1" vertex="1">
          <mxGeometry x="-715" y="640" width="640" height="2210" as="geometry" />
        </mxCell>
        <mxCell id="LS44oTjPr1vH88ch1C3Q-5" value="" style="edgeStyle=orthogonalEdgeStyle;rounded=0;orthogonalLoop=1;jettySize=auto;html=1;entryX=0.5;entryY=0;entryDx=0;entryDy=0;" parent="mvioNwK95yMqdUQ73LqQ-36" source="mvioNwK95yMqdUQ73LqQ-35" target="LS44oTjPr1vH88ch1C3Q-0" edge="1">
          <mxGeometry relative="1" as="geometry" />
        </mxCell>
        <mxCell id="mvioNwK95yMqdUQ73LqQ-35" value="&lt;font data-font-src=&quot;https://fonts.googleapis.com/css?family=Sarabun&quot; face=&quot;Sarabun&quot;&gt;เริ่มต้น&lt;/font&gt;" style="ellipse;whiteSpace=wrap;html=1;" parent="mvioNwK95yMqdUQ73LqQ-36" vertex="1">
          <mxGeometry x="55" y="40" width="130" height="30" as="geometry" />
        </mxCell>
        <mxCell id="mvioNwK95yMqdUQ73LqQ-69" value="&lt;font face=&quot;Sarabun&quot;&gt;สิ้นสุด&lt;/font&gt;" style="ellipse;whiteSpace=wrap;html=1;" parent="mvioNwK95yMqdUQ73LqQ-36" vertex="1">
          <mxGeometry x="137.5" y="2130" width="130" height="30" as="geometry" />
        </mxCell>
        <mxCell id="LS44oTjPr1vH88ch1C3Q-25" value="" style="edgeStyle=orthogonalEdgeStyle;rounded=0;orthogonalLoop=1;jettySize=auto;html=1;entryX=0;entryY=0.5;entryDx=0;entryDy=0;entryPerimeter=0;" parent="mvioNwK95yMqdUQ73LqQ-36" source="LS44oTjPr1vH88ch1C3Q-0" target="LS44oTjPr1vH88ch1C3Q-117" edge="1">
          <mxGeometry relative="1" as="geometry">
            <mxPoint x="120" y="180" as="targetPoint" />
            <Array as="points">
              <mxPoint x="120" y="650" />
            </Array>
          </mxGeometry>
        </mxCell>
        <mxCell id="LS44oTjPr1vH88ch1C3Q-98" value="" style="edgeStyle=orthogonalEdgeStyle;rounded=0;orthogonalLoop=1;jettySize=auto;html=1;" parent="mvioNwK95yMqdUQ73LqQ-36" target="LS44oTjPr1vH88ch1C3Q-97" edge="1">
          <mxGeometry relative="1" as="geometry">
            <mxPoint x="191.56" y="115" as="sourcePoint" />
          </mxGeometry>
        </mxCell>
        <mxCell id="LS44oTjPr1vH88ch1C3Q-0" value="มีบะหมี่กึ่งสำเร็จรูป" style="rhombus;whiteSpace=wrap;html=1;fontFamily=Sarabun;fontSource=https%3A%2F%2Ffonts.googleapis.com%2Fcss%3Ffamily%3DSarabun;" parent="mvioNwK95yMqdUQ73LqQ-36" vertex="1">
          <mxGeometry x="50" y="85" width="140" height="60" as="geometry" />
        </mxCell>
        <mxCell id="LS44oTjPr1vH88ch1C3Q-7" value="ปั่นจักรยานไปซื้อที่ตลาด" style="rounded=0;whiteSpace=wrap;html=1;" parent="mvioNwK95yMqdUQ73LqQ-36" vertex="1">
          <mxGeometry x="215.31" y="204" width="130" height="30" as="geometry" />
        </mxCell>
        <mxCell id="LS44oTjPr1vH88ch1C3Q-12" value="" style="endArrow=classic;html=1;rounded=0;exitX=0.5;exitY=1;exitDx=0;exitDy=0;edgeStyle=orthogonalEdgeStyle;entryX=0.5;entryY=0;entryDx=0;entryDy=0;" parent="mvioNwK95yMqdUQ73LqQ-36" source="LS44oTjPr1vH88ch1C3Q-7" edge="1">
          <mxGeometry width="50" height="50" relative="1" as="geometry">
            <mxPoint x="303.43" y="284" as="sourcePoint" />
            <mxPoint x="280.31" y="259" as="targetPoint" />
          </mxGeometry>
        </mxCell>
        <mxCell id="LS44oTjPr1vH88ch1C3Q-30" value="" style="edgeStyle=orthogonalEdgeStyle;rounded=0;orthogonalLoop=1;jettySize=auto;html=1;" parent="mvioNwK95yMqdUQ73LqQ-36" source="LS44oTjPr1vH88ch1C3Q-26" target="LS44oTjPr1vH88ch1C3Q-29" edge="1">
          <mxGeometry relative="1" as="geometry" />
        </mxCell>
        <mxCell id="LS44oTjPr1vH88ch1C3Q-26" value="วางหม้อบนเตา" style="rounded=0;whiteSpace=wrap;html=1;" parent="mvioNwK95yMqdUQ73LqQ-36" vertex="1">
          <mxGeometry x="219.38" y="680" width="130" height="30" as="geometry" />
        </mxCell>
        <mxCell id="LS44oTjPr1vH88ch1C3Q-32" value="" style="edgeStyle=orthogonalEdgeStyle;rounded=0;orthogonalLoop=1;jettySize=auto;html=1;" parent="mvioNwK95yMqdUQ73LqQ-36" source="LS44oTjPr1vH88ch1C3Q-29" target="LS44oTjPr1vH88ch1C3Q-31" edge="1">
          <mxGeometry relative="1" as="geometry" />
        </mxCell>
        <mxCell id="LS44oTjPr1vH88ch1C3Q-29" value="ใส่น้ำในหม้อ" style="rounded=0;whiteSpace=wrap;html=1;" parent="mvioNwK95yMqdUQ73LqQ-36" vertex="1">
          <mxGeometry x="219.38" y="730" width="130" height="30" as="geometry" />
        </mxCell>
        <mxCell id="LS44oTjPr1vH88ch1C3Q-124" value="" style="edgeStyle=orthogonalEdgeStyle;rounded=0;orthogonalLoop=1;jettySize=auto;html=1;" parent="mvioNwK95yMqdUQ73LqQ-36" source="LS44oTjPr1vH88ch1C3Q-31" target="LS44oTjPr1vH88ch1C3Q-123" edge="1">
          <mxGeometry relative="1" as="geometry" />
        </mxCell>
        <mxCell id="LS44oTjPr1vH88ch1C3Q-31" value="เปิดเตาแก็ส" style="rounded=0;whiteSpace=wrap;html=1;" parent="mvioNwK95yMqdUQ73LqQ-36" vertex="1">
          <mxGeometry x="219.38" y="780" width="130" height="30" as="geometry" />
        </mxCell>
        <mxCell id="LS44oTjPr1vH88ch1C3Q-39" value="" style="edgeStyle=orthogonalEdgeStyle;rounded=0;orthogonalLoop=1;jettySize=auto;html=1;" parent="mvioNwK95yMqdUQ73LqQ-36" source="LS44oTjPr1vH88ch1C3Q-33" target="LS44oTjPr1vH88ch1C3Q-38" edge="1">
          <mxGeometry relative="1" as="geometry" />
        </mxCell>
        <mxCell id="LS44oTjPr1vH88ch1C3Q-33" value="" style="strokeWidth=2;html=1;shape=mxgraph.flowchart.start_2;whiteSpace=wrap;" parent="mvioNwK95yMqdUQ73LqQ-36" vertex="1">
          <mxGeometry x="193.75" y="935" width="20" height="20" as="geometry" />
        </mxCell>
        <mxCell id="LS44oTjPr1vH88ch1C3Q-35" value="น้ำเดือด" style="rhombus;whiteSpace=wrap;html=1;fontFamily=Sarabun;fontSource=https%3A%2F%2Ffonts.googleapis.com%2Fcss%3Ffamily%3DSarabun;" parent="mvioNwK95yMqdUQ73LqQ-36" vertex="1">
          <mxGeometry x="133.75" y="1025" width="140" height="60" as="geometry" />
        </mxCell>
        <mxCell id="LS44oTjPr1vH88ch1C3Q-40" value="" style="edgeStyle=orthogonalEdgeStyle;rounded=0;orthogonalLoop=1;jettySize=auto;html=1;" parent="mvioNwK95yMqdUQ73LqQ-36" source="LS44oTjPr1vH88ch1C3Q-38" target="LS44oTjPr1vH88ch1C3Q-35" edge="1">
          <mxGeometry relative="1" as="geometry" />
        </mxCell>
        <mxCell id="LS44oTjPr1vH88ch1C3Q-38" value="เช็คน้ำ" style="rounded=0;whiteSpace=wrap;html=1;" parent="mvioNwK95yMqdUQ73LqQ-36" vertex="1">
          <mxGeometry x="138.75" y="975" width="130" height="30" as="geometry" />
        </mxCell>
        <mxCell id="LS44oTjPr1vH88ch1C3Q-42" value="" style="endArrow=classic;html=1;rounded=0;edgeStyle=orthogonalEdgeStyle;entryX=0.5;entryY=1;entryDx=0;entryDy=0;" parent="mvioNwK95yMqdUQ73LqQ-36" target="LS44oTjPr1vH88ch1C3Q-56" edge="1">
          <mxGeometry width="50" height="50" relative="1" as="geometry">
            <mxPoint x="273.75" y="1055" as="sourcePoint" />
            <mxPoint x="403.75" y="1015" as="targetPoint" />
            <Array as="points">
              <mxPoint x="273.75" y="1056" />
              <mxPoint x="328.75" y="1056" />
            </Array>
          </mxGeometry>
        </mxCell>
        <mxCell id="LS44oTjPr1vH88ch1C3Q-53" value="แกะซองบะหมี่" style="rounded=0;whiteSpace=wrap;html=1;" parent="mvioNwK95yMqdUQ73LqQ-36" vertex="1">
          <mxGeometry x="138.75" y="1098.5" width="130" height="30" as="geometry" />
        </mxCell>
        <mxCell id="LS44oTjPr1vH88ch1C3Q-55" value="รอ 3 นาที" style="rounded=0;whiteSpace=wrap;html=1;" parent="mvioNwK95yMqdUQ73LqQ-36" vertex="1">
          <mxGeometry x="138.75" y="1190" width="130" height="30" as="geometry" />
        </mxCell>
        <mxCell id="LS44oTjPr1vH88ch1C3Q-56" value="รอ 20 วินาที" style="rounded=0;whiteSpace=wrap;html=1;" parent="mvioNwK95yMqdUQ73LqQ-36" vertex="1">
          <mxGeometry x="293.75" y="975" width="70" height="30" as="geometry" />
        </mxCell>
        <mxCell id="LS44oTjPr1vH88ch1C3Q-58" value="" style="endArrow=classic;html=1;rounded=0;exitX=0.5;exitY=0;exitDx=0;exitDy=0;edgeStyle=orthogonalEdgeStyle;entryX=1;entryY=0.5;entryDx=0;entryDy=0;entryPerimeter=0;" parent="mvioNwK95yMqdUQ73LqQ-36" source="LS44oTjPr1vH88ch1C3Q-56" target="LS44oTjPr1vH88ch1C3Q-33" edge="1">
          <mxGeometry width="50" height="50" relative="1" as="geometry">
            <mxPoint x="163.75" y="1035" as="sourcePoint" />
            <mxPoint x="213.75" y="985" as="targetPoint" />
          </mxGeometry>
        </mxCell>
        <mxCell id="LS44oTjPr1vH88ch1C3Q-68" value="" style="edgeStyle=orthogonalEdgeStyle;rounded=0;orthogonalLoop=1;jettySize=auto;html=1;" parent="mvioNwK95yMqdUQ73LqQ-36" source="LS44oTjPr1vH88ch1C3Q-60" target="LS44oTjPr1vH88ch1C3Q-63" edge="1">
          <mxGeometry relative="1" as="geometry" />
        </mxCell>
        <mxCell id="LS44oTjPr1vH88ch1C3Q-60" value="" style="strokeWidth=2;html=1;shape=mxgraph.flowchart.start_2;whiteSpace=wrap;" parent="mvioNwK95yMqdUQ73LqQ-36" vertex="1">
          <mxGeometry x="193.75" y="1240" width="20" height="20" as="geometry" />
        </mxCell>
        <mxCell id="LS44oTjPr1vH88ch1C3Q-61" value="" style="endArrow=classic;html=1;rounded=0;exitX=0.5;exitY=1;exitDx=0;exitDy=0;entryX=0.5;entryY=0;entryDx=0;entryDy=0;entryPerimeter=0;" parent="mvioNwK95yMqdUQ73LqQ-36" target="LS44oTjPr1vH88ch1C3Q-60" edge="1">
          <mxGeometry width="50" height="50" relative="1" as="geometry">
            <mxPoint x="203.75" y="1220" as="sourcePoint" />
            <mxPoint x="243.75" y="1140" as="targetPoint" />
          </mxGeometry>
        </mxCell>
        <mxCell id="LS44oTjPr1vH88ch1C3Q-70" value="" style="edgeStyle=orthogonalEdgeStyle;rounded=0;orthogonalLoop=1;jettySize=auto;html=1;" parent="mvioNwK95yMqdUQ73LqQ-36" source="LS44oTjPr1vH88ch1C3Q-62" target="LS44oTjPr1vH88ch1C3Q-69" edge="1">
          <mxGeometry relative="1" as="geometry" />
        </mxCell>
        <mxCell id="LS44oTjPr1vH88ch1C3Q-62" value="เส้นนุ่ม" style="rhombus;whiteSpace=wrap;html=1;fontFamily=Sarabun;fontSource=https%3A%2F%2Ffonts.googleapis.com%2Fcss%3Ffamily%3DSarabun;" parent="mvioNwK95yMqdUQ73LqQ-36" vertex="1">
          <mxGeometry x="133.75" y="1330" width="140" height="60" as="geometry" />
        </mxCell>
        <mxCell id="LS44oTjPr1vH88ch1C3Q-67" value="" style="edgeStyle=orthogonalEdgeStyle;rounded=0;orthogonalLoop=1;jettySize=auto;html=1;" parent="mvioNwK95yMqdUQ73LqQ-36" source="LS44oTjPr1vH88ch1C3Q-63" edge="1">
          <mxGeometry relative="1" as="geometry">
            <mxPoint x="204" y="1330" as="targetPoint" />
          </mxGeometry>
        </mxCell>
        <mxCell id="LS44oTjPr1vH88ch1C3Q-63" value="เช็คเส้น" style="rounded=0;whiteSpace=wrap;html=1;" parent="mvioNwK95yMqdUQ73LqQ-36" vertex="1">
          <mxGeometry x="138.75" y="1280" width="130" height="30" as="geometry" />
        </mxCell>
        <mxCell id="LS44oTjPr1vH88ch1C3Q-64" value="" style="endArrow=classic;html=1;rounded=0;edgeStyle=orthogonalEdgeStyle;entryX=0.5;entryY=1;entryDx=0;entryDy=0;" parent="mvioNwK95yMqdUQ73LqQ-36" target="LS44oTjPr1vH88ch1C3Q-65" edge="1">
          <mxGeometry width="50" height="50" relative="1" as="geometry">
            <mxPoint x="273.75" y="1360" as="sourcePoint" />
            <mxPoint x="403.75" y="1320" as="targetPoint" />
            <Array as="points">
              <mxPoint x="273.75" y="1361" />
              <mxPoint x="328.75" y="1361" />
            </Array>
          </mxGeometry>
        </mxCell>
        <mxCell id="LS44oTjPr1vH88ch1C3Q-65" value="รอ 20 วินาที" style="rounded=0;whiteSpace=wrap;html=1;" parent="mvioNwK95yMqdUQ73LqQ-36" vertex="1">
          <mxGeometry x="293.75" y="1280" width="70" height="30" as="geometry" />
        </mxCell>
        <mxCell id="LS44oTjPr1vH88ch1C3Q-66" value="" style="endArrow=classic;html=1;rounded=0;exitX=0.5;exitY=0;exitDx=0;exitDy=0;edgeStyle=orthogonalEdgeStyle;entryX=1;entryY=0.5;entryDx=0;entryDy=0;entryPerimeter=0;" parent="mvioNwK95yMqdUQ73LqQ-36" source="LS44oTjPr1vH88ch1C3Q-65" target="LS44oTjPr1vH88ch1C3Q-60" edge="1">
          <mxGeometry width="50" height="50" relative="1" as="geometry">
            <mxPoint x="163.75" y="1340" as="sourcePoint" />
            <mxPoint x="213.75" y="1290" as="targetPoint" />
          </mxGeometry>
        </mxCell>
        <mxCell id="LS44oTjPr1vH88ch1C3Q-169" value="" style="edgeStyle=orthogonalEdgeStyle;rounded=0;orthogonalLoop=1;jettySize=auto;html=1;" parent="mvioNwK95yMqdUQ73LqQ-36" source="LS44oTjPr1vH88ch1C3Q-69" target="LS44oTjPr1vH88ch1C3Q-168" edge="1">
          <mxGeometry relative="1" as="geometry" />
        </mxCell>
        <mxCell id="LS44oTjPr1vH88ch1C3Q-69" value="เทเส้นและน้ำลงถ้วย" style="rounded=0;whiteSpace=wrap;html=1;" parent="mvioNwK95yMqdUQ73LqQ-36" vertex="1">
          <mxGeometry x="138.75" y="1410" width="130" height="30" as="geometry" />
        </mxCell>
        <mxCell id="LS44oTjPr1vH88ch1C3Q-204" value="" style="edgeStyle=orthogonalEdgeStyle;rounded=0;orthogonalLoop=1;jettySize=auto;html=1;" parent="mvioNwK95yMqdUQ73LqQ-36" source="LS44oTjPr1vH88ch1C3Q-73" target="LS44oTjPr1vH88ch1C3Q-203" edge="1">
          <mxGeometry relative="1" as="geometry" />
        </mxCell>
        <mxCell id="LS44oTjPr1vH88ch1C3Q-73" value="ใส่เครื่องปรุงลงในถ้วย" style="rounded=0;whiteSpace=wrap;html=1;" parent="mvioNwK95yMqdUQ73LqQ-36" vertex="1">
          <mxGeometry x="136.25" y="1740" width="135" height="30" as="geometry" />
        </mxCell>
        <mxCell id="LS44oTjPr1vH88ch1C3Q-175" value="" style="edgeStyle=orthogonalEdgeStyle;rounded=0;orthogonalLoop=1;jettySize=auto;html=1;entryX=0.5;entryY=0;entryDx=0;entryDy=0;" parent="mvioNwK95yMqdUQ73LqQ-36" source="LS44oTjPr1vH88ch1C3Q-75" target="LS44oTjPr1vH88ch1C3Q-76" edge="1">
          <mxGeometry relative="1" as="geometry" />
        </mxCell>
        <mxCell id="LS44oTjPr1vH88ch1C3Q-75" value="วางตะเกียบในถ้วย" style="rounded=0;whiteSpace=wrap;html=1;" parent="mvioNwK95yMqdUQ73LqQ-36" vertex="1">
          <mxGeometry x="135" y="1860" width="135" height="30" as="geometry" />
        </mxCell>
        <mxCell id="LS44oTjPr1vH88ch1C3Q-176" value="" style="edgeStyle=orthogonalEdgeStyle;rounded=0;orthogonalLoop=1;jettySize=auto;html=1;" parent="mvioNwK95yMqdUQ73LqQ-36" source="LS44oTjPr1vH88ch1C3Q-76" target="LS44oTjPr1vH88ch1C3Q-77" edge="1">
          <mxGeometry relative="1" as="geometry" />
        </mxCell>
        <mxCell id="LS44oTjPr1vH88ch1C3Q-76" value="ใช้ตะเกียบคนเส้นบะหมี่" style="rounded=0;whiteSpace=wrap;html=1;" parent="mvioNwK95yMqdUQ73LqQ-36" vertex="1">
          <mxGeometry x="113.75" y="1910" width="177.5" height="30" as="geometry" />
        </mxCell>
        <mxCell id="LS44oTjPr1vH88ch1C3Q-77" value="วางช้อนในถ้วย" style="rounded=0;whiteSpace=wrap;html=1;" parent="mvioNwK95yMqdUQ73LqQ-36" vertex="1">
          <mxGeometry x="135" y="1960" width="135" height="30" as="geometry" />
        </mxCell>
        <mxCell id="LS44oTjPr1vH88ch1C3Q-81" value="" style="edgeStyle=orthogonalEdgeStyle;rounded=0;orthogonalLoop=1;jettySize=auto;html=1;" parent="mvioNwK95yMqdUQ73LqQ-36" target="LS44oTjPr1vH88ch1C3Q-80" edge="1">
          <mxGeometry relative="1" as="geometry">
            <mxPoint x="283.43" y="314" as="sourcePoint" />
          </mxGeometry>
        </mxCell>
        <mxCell id="LS44oTjPr1vH88ch1C3Q-78" value="ตลาดมีบะหมี่กึ่งสำเร็จรูป" style="rhombus;whiteSpace=wrap;html=1;fontFamily=Sarabun;fontSource=https%3A%2F%2Ffonts.googleapis.com%2Fcss%3Ffamily%3DSarabun;" parent="mvioNwK95yMqdUQ73LqQ-36" vertex="1">
          <mxGeometry x="200.31" y="259" width="165" height="60" as="geometry" />
        </mxCell>
        <mxCell id="LS44oTjPr1vH88ch1C3Q-79" value="ปั่นจักรยานไปซื้อที่ 7/11" style="rounded=0;whiteSpace=wrap;html=1;" parent="mvioNwK95yMqdUQ73LqQ-36" vertex="1">
          <mxGeometry x="318.43" y="314" width="130" height="30" as="geometry" />
        </mxCell>
        <mxCell id="LS44oTjPr1vH88ch1C3Q-92" value="" style="edgeStyle=orthogonalEdgeStyle;rounded=0;orthogonalLoop=1;jettySize=auto;html=1;" parent="mvioNwK95yMqdUQ73LqQ-36" source="LS44oTjPr1vH88ch1C3Q-80" target="LS44oTjPr1vH88ch1C3Q-85" edge="1">
          <mxGeometry relative="1" as="geometry" />
        </mxCell>
        <mxCell id="LS44oTjPr1vH88ch1C3Q-80" value="" style="strokeWidth=2;html=1;shape=mxgraph.flowchart.start_2;whiteSpace=wrap;" parent="mvioNwK95yMqdUQ73LqQ-36" vertex="1">
          <mxGeometry x="273.43" y="364" width="20" height="20" as="geometry" />
        </mxCell>
        <mxCell id="LS44oTjPr1vH88ch1C3Q-83" value="" style="endArrow=classic;html=1;rounded=0;exitX=1;exitY=0.5;exitDx=0;exitDy=0;entryX=0.5;entryY=0;entryDx=0;entryDy=0;edgeStyle=orthogonalEdgeStyle;" parent="mvioNwK95yMqdUQ73LqQ-36" target="LS44oTjPr1vH88ch1C3Q-79" edge="1">
          <mxGeometry width="50" height="50" relative="1" as="geometry">
            <mxPoint x="362.81" y="289" as="sourcePoint" />
            <mxPoint x="278.43" y="264" as="targetPoint" />
            <Array as="points">
              <mxPoint x="383.06" y="289" />
            </Array>
          </mxGeometry>
        </mxCell>
        <mxCell id="LS44oTjPr1vH88ch1C3Q-84" value="" style="endArrow=classic;html=1;rounded=0;exitX=0.5;exitY=1;exitDx=0;exitDy=0;entryX=1;entryY=0.5;entryDx=0;entryDy=0;entryPerimeter=0;edgeStyle=orthogonalEdgeStyle;" parent="mvioNwK95yMqdUQ73LqQ-36" source="LS44oTjPr1vH88ch1C3Q-79" target="LS44oTjPr1vH88ch1C3Q-80" edge="1">
          <mxGeometry width="50" height="50" relative="1" as="geometry">
            <mxPoint x="228.43" y="404" as="sourcePoint" />
            <mxPoint x="278.43" y="354" as="targetPoint" />
          </mxGeometry>
        </mxCell>
        <mxCell id="LS44oTjPr1vH88ch1C3Q-85" value="หยิบซองบะหมี่กึ่งสำเร็จรูป" style="rounded=0;whiteSpace=wrap;html=1;" parent="mvioNwK95yMqdUQ73LqQ-36" vertex="1">
          <mxGeometry x="218.43" y="414" width="130" height="30" as="geometry" />
        </mxCell>
        <mxCell id="LS44oTjPr1vH88ch1C3Q-96" value="" style="edgeStyle=orthogonalEdgeStyle;rounded=0;orthogonalLoop=1;jettySize=auto;html=1;exitX=1;exitY=0.5;exitDx=0;exitDy=0;" parent="mvioNwK95yMqdUQ73LqQ-36" source="LS44oTjPr1vH88ch1C3Q-94" target="LS44oTjPr1vH88ch1C3Q-95" edge="1">
          <mxGeometry relative="1" as="geometry">
            <mxPoint x="366.87" y="494" as="sourcePoint" />
          </mxGeometry>
        </mxCell>
        <mxCell id="LS44oTjPr1vH88ch1C3Q-108" value="" style="edgeStyle=orthogonalEdgeStyle;rounded=0;orthogonalLoop=1;jettySize=auto;html=1;" parent="mvioNwK95yMqdUQ73LqQ-36" target="LS44oTjPr1vH88ch1C3Q-107" edge="1">
          <mxGeometry relative="1" as="geometry">
            <mxPoint x="284.41032258064513" y="523.9853372434018" as="sourcePoint" />
          </mxGeometry>
        </mxCell>
        <mxCell id="LS44oTjPr1vH88ch1C3Q-94" value="เงินพอจ่าย" style="rhombus;whiteSpace=wrap;html=1;fontFamily=Sarabun;fontSource=https%3A%2F%2Ffonts.googleapis.com%2Fcss%3Ffamily%3DSarabun;" parent="mvioNwK95yMqdUQ73LqQ-36" vertex="1">
          <mxGeometry x="201.87" y="469" width="165" height="60" as="geometry" />
        </mxCell>
        <mxCell id="LS44oTjPr1vH88ch1C3Q-95" value="วางซองบะหมี่กึ่งสำเร็จรูป&lt;div&gt;ไว้ที่เดิม&lt;/div&gt;" style="rounded=0;whiteSpace=wrap;html=1;" parent="mvioNwK95yMqdUQ73LqQ-36" vertex="1">
          <mxGeometry x="410" y="484" width="130" height="30" as="geometry" />
        </mxCell>
        <mxCell id="LS44oTjPr1vH88ch1C3Q-101" value="" style="edgeStyle=orthogonalEdgeStyle;rounded=0;orthogonalLoop=1;jettySize=auto;html=1;" parent="mvioNwK95yMqdUQ73LqQ-36" source="LS44oTjPr1vH88ch1C3Q-97" target="LS44oTjPr1vH88ch1C3Q-100" edge="1">
          <mxGeometry relative="1" as="geometry" />
        </mxCell>
        <mxCell id="LS44oTjPr1vH88ch1C3Q-97" value="หยิบกระเป๋าเงิน" style="rounded=0;whiteSpace=wrap;html=1;" parent="mvioNwK95yMqdUQ73LqQ-36" vertex="1">
          <mxGeometry x="215.31" y="100" width="130" height="30" as="geometry" />
        </mxCell>
        <mxCell id="LS44oTjPr1vH88ch1C3Q-100" value="" style="strokeWidth=2;html=1;shape=mxgraph.flowchart.start_2;whiteSpace=wrap;" parent="mvioNwK95yMqdUQ73LqQ-36" vertex="1">
          <mxGeometry x="270.31" y="155" width="20" height="20" as="geometry" />
        </mxCell>
        <mxCell id="LS44oTjPr1vH88ch1C3Q-103" value="" style="endArrow=classic;html=1;rounded=0;exitX=0.5;exitY=1;exitDx=0;exitDy=0;exitPerimeter=0;entryX=0.5;entryY=0;entryDx=0;entryDy=0;" parent="mvioNwK95yMqdUQ73LqQ-36" source="LS44oTjPr1vH88ch1C3Q-100" target="LS44oTjPr1vH88ch1C3Q-7" edge="1">
          <mxGeometry width="50" height="50" relative="1" as="geometry">
            <mxPoint x="369.06" y="285" as="sourcePoint" />
            <mxPoint x="419.06" y="235" as="targetPoint" />
          </mxGeometry>
        </mxCell>
        <mxCell id="LS44oTjPr1vH88ch1C3Q-106" value="" style="edgeStyle=orthogonalEdgeStyle;rounded=0;orthogonalLoop=1;jettySize=auto;html=1;" parent="mvioNwK95yMqdUQ73LqQ-36" target="LS44oTjPr1vH88ch1C3Q-100" edge="1">
          <mxGeometry relative="1" as="geometry">
            <mxPoint x="374.0600000000001" y="165" as="sourcePoint" />
          </mxGeometry>
        </mxCell>
        <mxCell id="LS44oTjPr1vH88ch1C3Q-104" value="หยิบเงินเพิ่ม 20 บาทในกระปุกออมสิน" style="rounded=0;whiteSpace=wrap;html=1;" parent="mvioNwK95yMqdUQ73LqQ-36" vertex="1">
          <mxGeometry x="371.88" y="155" width="198.75" height="30" as="geometry" />
        </mxCell>
        <mxCell id="LS44oTjPr1vH88ch1C3Q-114" value="" style="edgeStyle=orthogonalEdgeStyle;rounded=0;orthogonalLoop=1;jettySize=auto;html=1;" parent="mvioNwK95yMqdUQ73LqQ-36" source="LS44oTjPr1vH88ch1C3Q-107" target="LS44oTjPr1vH88ch1C3Q-113" edge="1">
          <mxGeometry relative="1" as="geometry" />
        </mxCell>
        <mxCell id="LS44oTjPr1vH88ch1C3Q-107" value="จ่ายเงิน" style="rounded=0;whiteSpace=wrap;html=1;" parent="mvioNwK95yMqdUQ73LqQ-36" vertex="1">
          <mxGeometry x="219.37" y="545" width="130" height="30" as="geometry" />
        </mxCell>
        <mxCell id="LS44oTjPr1vH88ch1C3Q-110" value="" style="edgeStyle=orthogonalEdgeStyle;rounded=0;orthogonalLoop=1;jettySize=auto;html=1;" parent="mvioNwK95yMqdUQ73LqQ-36" edge="1">
          <mxGeometry relative="1" as="geometry">
            <mxPoint x="474.66838709677415" y="215" as="sourcePoint" />
            <mxPoint x="474.41032258064513" y="180" as="targetPoint" />
          </mxGeometry>
        </mxCell>
        <mxCell id="LS44oTjPr1vH88ch1C3Q-109" value="ปั่นจักรยานกลับบ้าน" style="rounded=0;whiteSpace=wrap;html=1;" parent="mvioNwK95yMqdUQ73LqQ-36" vertex="1">
          <mxGeometry x="372.51" y="220" width="198.12" height="31" as="geometry" />
        </mxCell>
        <mxCell id="LS44oTjPr1vH88ch1C3Q-111" value="" style="endArrow=classic;html=1;rounded=0;entryX=0.5;entryY=1;entryDx=0;entryDy=0;exitX=0.5;exitY=0;exitDx=0;exitDy=0;" parent="mvioNwK95yMqdUQ73LqQ-36" source="LS44oTjPr1vH88ch1C3Q-95" edge="1">
          <mxGeometry width="50" height="50" relative="1" as="geometry">
            <mxPoint x="193.12" y="325" as="sourcePoint" />
            <mxPoint x="474.68999999999994" y="246" as="targetPoint" />
          </mxGeometry>
        </mxCell>
        <mxCell id="LS44oTjPr1vH88ch1C3Q-113" value="ปั่นจักรยานกลับบ้าน" style="rounded=0;whiteSpace=wrap;html=1;" parent="mvioNwK95yMqdUQ73LqQ-36" vertex="1">
          <mxGeometry x="217.49" y="590" width="133.75" height="31" as="geometry" />
        </mxCell>
        <mxCell id="LS44oTjPr1vH88ch1C3Q-120" value="" style="edgeStyle=orthogonalEdgeStyle;rounded=0;orthogonalLoop=1;jettySize=auto;html=1;entryX=0.5;entryY=0;entryDx=0;entryDy=0;" parent="mvioNwK95yMqdUQ73LqQ-36" source="LS44oTjPr1vH88ch1C3Q-117" target="LS44oTjPr1vH88ch1C3Q-26" edge="1">
          <mxGeometry relative="1" as="geometry" />
        </mxCell>
        <mxCell id="LS44oTjPr1vH88ch1C3Q-117" value="" style="strokeWidth=2;html=1;shape=mxgraph.flowchart.start_2;whiteSpace=wrap;" parent="mvioNwK95yMqdUQ73LqQ-36" vertex="1">
          <mxGeometry x="274.38" y="640" width="20" height="20" as="geometry" />
        </mxCell>
        <mxCell id="LS44oTjPr1vH88ch1C3Q-119" value="" style="endArrow=classic;html=1;rounded=0;entryX=0.5;entryY=0;entryDx=0;entryDy=0;entryPerimeter=0;exitX=0.5;exitY=1;exitDx=0;exitDy=0;" parent="mvioNwK95yMqdUQ73LqQ-36" source="LS44oTjPr1vH88ch1C3Q-113" target="LS44oTjPr1vH88ch1C3Q-117" edge="1">
          <mxGeometry width="50" height="50" relative="1" as="geometry">
            <mxPoint x="270" y="650" as="sourcePoint" />
            <mxPoint x="320" y="600" as="targetPoint" />
          </mxGeometry>
        </mxCell>
        <mxCell id="LS44oTjPr1vH88ch1C3Q-130" value="" style="edgeStyle=orthogonalEdgeStyle;rounded=0;orthogonalLoop=1;jettySize=auto;html=1;entryX=0;entryY=0.5;entryDx=0;entryDy=0;" parent="mvioNwK95yMqdUQ73LqQ-36" source="LS44oTjPr1vH88ch1C3Q-123" target="LS44oTjPr1vH88ch1C3Q-125" edge="1">
          <mxGeometry relative="1" as="geometry" />
        </mxCell>
        <mxCell id="LS44oTjPr1vH88ch1C3Q-123" value="เตาเปิดติด" style="rhombus;whiteSpace=wrap;html=1;fontFamily=Sarabun;fontSource=https%3A%2F%2Ffonts.googleapis.com%2Fcss%3Ffamily%3DSarabun;" parent="mvioNwK95yMqdUQ73LqQ-36" vertex="1">
          <mxGeometry x="214.37" y="840" width="140" height="60" as="geometry" />
        </mxCell>
        <mxCell id="LS44oTjPr1vH88ch1C3Q-128" value="" style="edgeStyle=orthogonalEdgeStyle;rounded=0;orthogonalLoop=1;jettySize=auto;html=1;" parent="mvioNwK95yMqdUQ73LqQ-36" source="LS44oTjPr1vH88ch1C3Q-125" target="LS44oTjPr1vH88ch1C3Q-126" edge="1">
          <mxGeometry relative="1" as="geometry" />
        </mxCell>
        <mxCell id="LS44oTjPr1vH88ch1C3Q-125" value="เทน้ำลงในถ้วย" style="rounded=0;whiteSpace=wrap;html=1;" parent="mvioNwK95yMqdUQ73LqQ-36" vertex="1">
          <mxGeometry x="410" y="855" width="120" height="30" as="geometry" />
        </mxCell>
        <mxCell id="LS44oTjPr1vH88ch1C3Q-131" value="" style="edgeStyle=orthogonalEdgeStyle;rounded=0;orthogonalLoop=1;jettySize=auto;html=1;" parent="mvioNwK95yMqdUQ73LqQ-36" source="LS44oTjPr1vH88ch1C3Q-126" target="LS44oTjPr1vH88ch1C3Q-129" edge="1">
          <mxGeometry relative="1" as="geometry" />
        </mxCell>
        <mxCell id="LS44oTjPr1vH88ch1C3Q-126" value="แกะซองบะหมี่สำเร็จรูป" style="rounded=0;whiteSpace=wrap;html=1;" parent="mvioNwK95yMqdUQ73LqQ-36" vertex="1">
          <mxGeometry x="410" y="905" width="120" height="30" as="geometry" />
        </mxCell>
        <mxCell id="LS44oTjPr1vH88ch1C3Q-133" value="" style="edgeStyle=orthogonalEdgeStyle;rounded=0;orthogonalLoop=1;jettySize=auto;html=1;" parent="mvioNwK95yMqdUQ73LqQ-36" source="LS44oTjPr1vH88ch1C3Q-129" target="LS44oTjPr1vH88ch1C3Q-132" edge="1">
          <mxGeometry relative="1" as="geometry" />
        </mxCell>
        <mxCell id="LS44oTjPr1vH88ch1C3Q-129" value="ใส่บะหมี่สำเร็จรูปในถ้วย" style="rounded=0;whiteSpace=wrap;html=1;" parent="mvioNwK95yMqdUQ73LqQ-36" vertex="1">
          <mxGeometry x="410" y="955" width="120" height="30" as="geometry" />
        </mxCell>
        <mxCell id="LS44oTjPr1vH88ch1C3Q-135" value="" style="edgeStyle=orthogonalEdgeStyle;rounded=0;orthogonalLoop=1;jettySize=auto;html=1;" parent="mvioNwK95yMqdUQ73LqQ-36" source="LS44oTjPr1vH88ch1C3Q-132" target="LS44oTjPr1vH88ch1C3Q-134" edge="1">
          <mxGeometry relative="1" as="geometry" />
        </mxCell>
        <mxCell id="LS44oTjPr1vH88ch1C3Q-132" value="ใส่ถ้วยบะหมี่ในไมโครเวฟ" style="rounded=0;whiteSpace=wrap;html=1;" parent="mvioNwK95yMqdUQ73LqQ-36" vertex="1">
          <mxGeometry x="410" y="1005" width="120" height="40" as="geometry" />
        </mxCell>
        <mxCell id="LS44oTjPr1vH88ch1C3Q-139" value="" style="edgeStyle=orthogonalEdgeStyle;rounded=0;orthogonalLoop=1;jettySize=auto;html=1;" parent="mvioNwK95yMqdUQ73LqQ-36" source="LS44oTjPr1vH88ch1C3Q-134" target="LS44oTjPr1vH88ch1C3Q-138" edge="1">
          <mxGeometry relative="1" as="geometry" />
        </mxCell>
        <mxCell id="LS44oTjPr1vH88ch1C3Q-134" value="ตั้งเวลาเวฟ 3 นาที" style="rounded=0;whiteSpace=wrap;html=1;" parent="mvioNwK95yMqdUQ73LqQ-36" vertex="1">
          <mxGeometry x="410" y="1065" width="120" height="30" as="geometry" />
        </mxCell>
        <mxCell id="LS44oTjPr1vH88ch1C3Q-153" value="" style="edgeStyle=orthogonalEdgeStyle;rounded=0;orthogonalLoop=1;jettySize=auto;html=1;" parent="mvioNwK95yMqdUQ73LqQ-36" source="LS44oTjPr1vH88ch1C3Q-136" target="LS44oTjPr1vH88ch1C3Q-152" edge="1">
          <mxGeometry relative="1" as="geometry" />
        </mxCell>
        <mxCell id="LS44oTjPr1vH88ch1C3Q-136" value="ไมโครเวฟครบ" style="rhombus;whiteSpace=wrap;html=1;fontFamily=Sarabun;fontSource=https%3A%2F%2Ffonts.googleapis.com%2Fcss%3Ffamily%3DSarabun;" parent="mvioNwK95yMqdUQ73LqQ-36" vertex="1">
          <mxGeometry x="400" y="1225" width="140" height="60" as="geometry" />
        </mxCell>
        <mxCell id="LS44oTjPr1vH88ch1C3Q-141" value="" style="edgeStyle=orthogonalEdgeStyle;rounded=0;orthogonalLoop=1;jettySize=auto;html=1;" parent="mvioNwK95yMqdUQ73LqQ-36" source="LS44oTjPr1vH88ch1C3Q-137" target="LS44oTjPr1vH88ch1C3Q-136" edge="1">
          <mxGeometry relative="1" as="geometry" />
        </mxCell>
        <mxCell id="LS44oTjPr1vH88ch1C3Q-137" value="รอ" style="rounded=0;whiteSpace=wrap;html=1;" parent="mvioNwK95yMqdUQ73LqQ-36" vertex="1">
          <mxGeometry x="410" y="1170" width="120" height="30" as="geometry" />
        </mxCell>
        <mxCell id="LS44oTjPr1vH88ch1C3Q-140" value="" style="edgeStyle=orthogonalEdgeStyle;rounded=0;orthogonalLoop=1;jettySize=auto;html=1;" parent="mvioNwK95yMqdUQ73LqQ-36" source="LS44oTjPr1vH88ch1C3Q-138" target="LS44oTjPr1vH88ch1C3Q-137" edge="1">
          <mxGeometry relative="1" as="geometry" />
        </mxCell>
        <mxCell id="LS44oTjPr1vH88ch1C3Q-138" value="" style="strokeWidth=2;html=1;shape=mxgraph.flowchart.start_2;whiteSpace=wrap;" parent="mvioNwK95yMqdUQ73LqQ-36" vertex="1">
          <mxGeometry x="460" y="1125" width="20" height="20" as="geometry" />
        </mxCell>
        <mxCell id="LS44oTjPr1vH88ch1C3Q-147" value="เส้นนุ่ม" style="rhombus;whiteSpace=wrap;html=1;fontFamily=Sarabun;fontSource=https%3A%2F%2Ffonts.googleapis.com%2Fcss%3Ffamily%3DSarabun;" parent="mvioNwK95yMqdUQ73LqQ-36" vertex="1">
          <mxGeometry x="400" y="1415" width="140" height="60" as="geometry" />
        </mxCell>
        <mxCell id="LS44oTjPr1vH88ch1C3Q-155" value="" style="edgeStyle=orthogonalEdgeStyle;rounded=0;orthogonalLoop=1;jettySize=auto;html=1;" parent="mvioNwK95yMqdUQ73LqQ-36" source="LS44oTjPr1vH88ch1C3Q-148" target="LS44oTjPr1vH88ch1C3Q-147" edge="1">
          <mxGeometry relative="1" as="geometry" />
        </mxCell>
        <mxCell id="LS44oTjPr1vH88ch1C3Q-148" value="เช็คเส้น" style="rounded=0;whiteSpace=wrap;html=1;" parent="mvioNwK95yMqdUQ73LqQ-36" vertex="1">
          <mxGeometry x="405" y="1365" width="130" height="30" as="geometry" />
        </mxCell>
        <mxCell id="LS44oTjPr1vH88ch1C3Q-157" value="" style="edgeStyle=orthogonalEdgeStyle;rounded=0;orthogonalLoop=1;jettySize=auto;html=1;" parent="mvioNwK95yMqdUQ73LqQ-36" source="LS44oTjPr1vH88ch1C3Q-150" target="LS44oTjPr1vH88ch1C3Q-156" edge="1">
          <mxGeometry relative="1" as="geometry" />
        </mxCell>
        <mxCell id="LS44oTjPr1vH88ch1C3Q-150" value="เอาถ้วยใส่ไมโครเวฟ" style="rounded=0;whiteSpace=wrap;html=1;" parent="mvioNwK95yMqdUQ73LqQ-36" vertex="1">
          <mxGeometry x="550" y="1365" width="65" height="30" as="geometry" />
        </mxCell>
        <mxCell id="LS44oTjPr1vH88ch1C3Q-154" value="" style="edgeStyle=orthogonalEdgeStyle;rounded=0;orthogonalLoop=1;jettySize=auto;html=1;" parent="mvioNwK95yMqdUQ73LqQ-36" source="LS44oTjPr1vH88ch1C3Q-152" target="LS44oTjPr1vH88ch1C3Q-148" edge="1">
          <mxGeometry relative="1" as="geometry" />
        </mxCell>
        <mxCell id="LS44oTjPr1vH88ch1C3Q-152" value="เปิดไมโครเวฟเอาถ้วยออก" style="rounded=0;whiteSpace=wrap;html=1;" parent="mvioNwK95yMqdUQ73LqQ-36" vertex="1">
          <mxGeometry x="405" y="1305" width="130" height="30" as="geometry" />
        </mxCell>
        <mxCell id="LS44oTjPr1vH88ch1C3Q-156" value="ตั้งเวลาเวฟ 1 นาที" style="rounded=0;whiteSpace=wrap;html=1;" parent="mvioNwK95yMqdUQ73LqQ-36" vertex="1">
          <mxGeometry x="550" y="1295" width="65" height="40" as="geometry" />
        </mxCell>
        <mxCell id="LS44oTjPr1vH88ch1C3Q-158" value="" style="endArrow=classic;html=1;rounded=0;entryX=0.5;entryY=1;entryDx=0;entryDy=0;exitX=0.976;exitY=0.478;exitDx=0;exitDy=0;exitPerimeter=0;edgeStyle=orthogonalEdgeStyle;" parent="mvioNwK95yMqdUQ73LqQ-36" source="LS44oTjPr1vH88ch1C3Q-147" target="LS44oTjPr1vH88ch1C3Q-150" edge="1">
          <mxGeometry width="50" height="50" relative="1" as="geometry">
            <mxPoint x="535" y="1445" as="sourcePoint" />
            <mxPoint x="585" y="1395" as="targetPoint" />
          </mxGeometry>
        </mxCell>
        <mxCell id="LS44oTjPr1vH88ch1C3Q-159" value="" style="endArrow=classic;html=1;rounded=0;entryX=1;entryY=0.5;entryDx=0;entryDy=0;entryPerimeter=0;exitX=0.5;exitY=0;exitDx=0;exitDy=0;edgeStyle=orthogonalEdgeStyle;" parent="mvioNwK95yMqdUQ73LqQ-36" source="LS44oTjPr1vH88ch1C3Q-156" target="LS44oTjPr1vH88ch1C3Q-138" edge="1">
          <mxGeometry width="50" height="50" relative="1" as="geometry">
            <mxPoint x="515" y="1255" as="sourcePoint" />
            <mxPoint x="565" y="1205" as="targetPoint" />
          </mxGeometry>
        </mxCell>
        <mxCell id="LS44oTjPr1vH88ch1C3Q-160" value="" style="endArrow=classic;html=1;rounded=0;exitX=0.5;exitY=1;exitDx=0;exitDy=0;entryX=0.5;entryY=0;entryDx=0;entryDy=0;entryPerimeter=0;edgeStyle=orthogonalEdgeStyle;" parent="mvioNwK95yMqdUQ73LqQ-36" source="LS44oTjPr1vH88ch1C3Q-123" target="LS44oTjPr1vH88ch1C3Q-33" edge="1">
          <mxGeometry width="50" height="50" relative="1" as="geometry">
            <mxPoint x="200" y="930" as="sourcePoint" />
            <mxPoint x="250" y="880" as="targetPoint" />
          </mxGeometry>
        </mxCell>
        <mxCell id="LS44oTjPr1vH88ch1C3Q-161" value="ใส่บะหมี่ในหม้อ" style="rounded=0;whiteSpace=wrap;html=1;" parent="mvioNwK95yMqdUQ73LqQ-36" vertex="1">
          <mxGeometry x="138.75" y="1145" width="130" height="30" as="geometry" />
        </mxCell>
        <mxCell id="LS44oTjPr1vH88ch1C3Q-162" value="" style="endArrow=classic;html=1;rounded=0;exitX=0.5;exitY=1;exitDx=0;exitDy=0;entryX=0.5;entryY=0;entryDx=0;entryDy=0;" parent="mvioNwK95yMqdUQ73LqQ-36" source="LS44oTjPr1vH88ch1C3Q-35" target="LS44oTjPr1vH88ch1C3Q-53" edge="1">
          <mxGeometry width="50" height="50" relative="1" as="geometry">
            <mxPoint x="170" y="1190" as="sourcePoint" />
            <mxPoint x="220" y="1140" as="targetPoint" />
          </mxGeometry>
        </mxCell>
        <mxCell id="LS44oTjPr1vH88ch1C3Q-164" value="" style="endArrow=classic;html=1;rounded=0;exitX=0.5;exitY=1;exitDx=0;exitDy=0;entryX=0.5;entryY=0;entryDx=0;entryDy=0;" parent="mvioNwK95yMqdUQ73LqQ-36" source="LS44oTjPr1vH88ch1C3Q-53" target="LS44oTjPr1vH88ch1C3Q-161" edge="1">
          <mxGeometry width="50" height="50" relative="1" as="geometry">
            <mxPoint x="290" y="1220" as="sourcePoint" />
            <mxPoint x="340" y="1170" as="targetPoint" />
          </mxGeometry>
        </mxCell>
        <mxCell id="LS44oTjPr1vH88ch1C3Q-166" value="" style="endArrow=classic;html=1;rounded=0;exitX=0.5;exitY=1;exitDx=0;exitDy=0;entryX=0.5;entryY=0;entryDx=0;entryDy=0;" parent="mvioNwK95yMqdUQ73LqQ-36" source="LS44oTjPr1vH88ch1C3Q-161" target="LS44oTjPr1vH88ch1C3Q-55" edge="1">
          <mxGeometry width="50" height="50" relative="1" as="geometry">
            <mxPoint x="210" y="1210" as="sourcePoint" />
            <mxPoint x="260" y="1160" as="targetPoint" />
          </mxGeometry>
        </mxCell>
        <mxCell id="LS44oTjPr1vH88ch1C3Q-174" value="" style="edgeStyle=orthogonalEdgeStyle;rounded=0;orthogonalLoop=1;jettySize=auto;html=1;" parent="mvioNwK95yMqdUQ73LqQ-36" source="LS44oTjPr1vH88ch1C3Q-168" edge="1">
          <mxGeometry relative="1" as="geometry">
            <mxPoint x="204" y="1550" as="targetPoint" />
          </mxGeometry>
        </mxCell>
        <mxCell id="LS44oTjPr1vH88ch1C3Q-168" value="" style="strokeWidth=2;html=1;shape=mxgraph.flowchart.start_2;whiteSpace=wrap;" parent="mvioNwK95yMqdUQ73LqQ-36" vertex="1">
          <mxGeometry x="194.37" y="1500" width="20" height="20" as="geometry" />
        </mxCell>
        <mxCell id="LS44oTjPr1vH88ch1C3Q-170" value="" style="endArrow=classic;html=1;rounded=0;exitX=0.5;exitY=1;exitDx=0;exitDy=0;entryX=1;entryY=0.5;entryDx=0;entryDy=0;entryPerimeter=0;edgeStyle=orthogonalEdgeStyle;" parent="mvioNwK95yMqdUQ73LqQ-36" source="LS44oTjPr1vH88ch1C3Q-147" target="LS44oTjPr1vH88ch1C3Q-168" edge="1">
          <mxGeometry width="50" height="50" relative="1" as="geometry">
            <mxPoint x="193" y="1480" as="sourcePoint" />
            <mxPoint x="243" y="1430" as="targetPoint" />
          </mxGeometry>
        </mxCell>
        <mxCell id="LS44oTjPr1vH88ch1C3Q-180" value="" style="edgeStyle=orthogonalEdgeStyle;rounded=0;orthogonalLoop=1;jettySize=auto;html=1;" parent="mvioNwK95yMqdUQ73LqQ-36" source="LS44oTjPr1vH88ch1C3Q-178" target="LS44oTjPr1vH88ch1C3Q-179" edge="1">
          <mxGeometry relative="1" as="geometry" />
        </mxCell>
        <mxCell id="LS44oTjPr1vH88ch1C3Q-178" value="วางถ้วยไว้บนโต๊ะ" style="rounded=0;whiteSpace=wrap;html=1;" parent="mvioNwK95yMqdUQ73LqQ-36" vertex="1">
          <mxGeometry x="139.37" y="1550" width="130" height="30" as="geometry" />
        </mxCell>
        <mxCell id="LS44oTjPr1vH88ch1C3Q-184" value="" style="edgeStyle=orthogonalEdgeStyle;rounded=0;orthogonalLoop=1;jettySize=auto;html=1;" parent="mvioNwK95yMqdUQ73LqQ-36" source="LS44oTjPr1vH88ch1C3Q-179" target="LS44oTjPr1vH88ch1C3Q-182" edge="1">
          <mxGeometry relative="1" as="geometry" />
        </mxCell>
        <mxCell id="LS44oTjPr1vH88ch1C3Q-199" value="" style="edgeStyle=orthogonalEdgeStyle;rounded=0;orthogonalLoop=1;jettySize=auto;html=1;" parent="mvioNwK95yMqdUQ73LqQ-36" source="LS44oTjPr1vH88ch1C3Q-179" target="LS44oTjPr1vH88ch1C3Q-198" edge="1">
          <mxGeometry relative="1" as="geometry" />
        </mxCell>
        <mxCell id="LS44oTjPr1vH88ch1C3Q-179" value="ในซองบะหมี่มี&lt;div&gt;เครื่องปรุงมาให้&lt;/div&gt;" style="rhombus;whiteSpace=wrap;html=1;fontFamily=Sarabun;fontSource=https%3A%2F%2Ffonts.googleapis.com%2Fcss%3Ffamily%3DSarabun;" parent="mvioNwK95yMqdUQ73LqQ-36" vertex="1">
          <mxGeometry x="125.63" y="1610" width="156.25" height="60" as="geometry" />
        </mxCell>
        <mxCell id="LS44oTjPr1vH88ch1C3Q-188" value="" style="edgeStyle=orthogonalEdgeStyle;rounded=0;orthogonalLoop=1;jettySize=auto;html=1;entryX=0.5;entryY=0;entryDx=0;entryDy=0;" parent="mvioNwK95yMqdUQ73LqQ-36" source="LS44oTjPr1vH88ch1C3Q-181" target="LS44oTjPr1vH88ch1C3Q-186" edge="1">
          <mxGeometry relative="1" as="geometry" />
        </mxCell>
        <mxCell id="LS44oTjPr1vH88ch1C3Q-181" value="หยิบผงชูรส" style="rounded=0;whiteSpace=wrap;html=1;" parent="mvioNwK95yMqdUQ73LqQ-36" vertex="1">
          <mxGeometry x="330" y="1688" width="130" height="30" as="geometry" />
        </mxCell>
        <mxCell id="LS44oTjPr1vH88ch1C3Q-185" value="" style="edgeStyle=orthogonalEdgeStyle;rounded=0;orthogonalLoop=1;jettySize=auto;html=1;" parent="mvioNwK95yMqdUQ73LqQ-36" source="LS44oTjPr1vH88ch1C3Q-182" target="LS44oTjPr1vH88ch1C3Q-73" edge="1">
          <mxGeometry relative="1" as="geometry" />
        </mxCell>
        <mxCell id="LS44oTjPr1vH88ch1C3Q-182" value="แกะซองเครื่องปรุง" style="rounded=0;whiteSpace=wrap;html=1;" parent="mvioNwK95yMqdUQ73LqQ-36" vertex="1">
          <mxGeometry x="136.87" y="1690" width="135" height="30" as="geometry" />
        </mxCell>
        <mxCell id="LS44oTjPr1vH88ch1C3Q-186" value="ใส่ผงชูรสลงในถ้วย" style="rounded=0;whiteSpace=wrap;html=1;" parent="mvioNwK95yMqdUQ73LqQ-36" vertex="1">
          <mxGeometry x="330" y="1743" width="130" height="27" as="geometry" />
        </mxCell>
        <mxCell id="LS44oTjPr1vH88ch1C3Q-200" value="" style="edgeStyle=orthogonalEdgeStyle;rounded=0;orthogonalLoop=1;jettySize=auto;html=1;" parent="mvioNwK95yMqdUQ73LqQ-36" source="LS44oTjPr1vH88ch1C3Q-198" edge="1">
          <mxGeometry relative="1" as="geometry">
            <mxPoint x="395" y="1690" as="targetPoint" />
          </mxGeometry>
        </mxCell>
        <mxCell id="LS44oTjPr1vH88ch1C3Q-198" value="ในครัวมีผงชูรส" style="rhombus;whiteSpace=wrap;html=1;fontFamily=Sarabun;fontSource=https%3A%2F%2Ffonts.googleapis.com%2Fcss%3Ffamily%3DSarabun;" parent="mvioNwK95yMqdUQ73LqQ-36" vertex="1">
          <mxGeometry x="316.87" y="1610" width="156.25" height="60" as="geometry" />
        </mxCell>
        <mxCell id="LS44oTjPr1vH88ch1C3Q-207" value="" style="edgeStyle=orthogonalEdgeStyle;rounded=0;orthogonalLoop=1;jettySize=auto;html=1;" parent="mvioNwK95yMqdUQ73LqQ-36" source="LS44oTjPr1vH88ch1C3Q-203" edge="1">
          <mxGeometry relative="1" as="geometry">
            <mxPoint x="204" y="1860" as="targetPoint" />
          </mxGeometry>
        </mxCell>
        <mxCell id="LS44oTjPr1vH88ch1C3Q-203" value="" style="strokeWidth=2;html=1;shape=mxgraph.flowchart.start_2;whiteSpace=wrap;" parent="mvioNwK95yMqdUQ73LqQ-36" vertex="1">
          <mxGeometry x="193.75" y="1810" width="20" height="20" as="geometry" />
        </mxCell>
        <mxCell id="LS44oTjPr1vH88ch1C3Q-205" style="edgeStyle=orthogonalEdgeStyle;rounded=0;orthogonalLoop=1;jettySize=auto;html=1;exitX=0.5;exitY=1;exitDx=0;exitDy=0;entryX=1;entryY=0.5;entryDx=0;entryDy=0;entryPerimeter=0;" parent="mvioNwK95yMqdUQ73LqQ-36" source="LS44oTjPr1vH88ch1C3Q-186" target="LS44oTjPr1vH88ch1C3Q-203" edge="1">
          <mxGeometry relative="1" as="geometry" />
        </mxCell>
        <mxCell id="LS44oTjPr1vH88ch1C3Q-218" value="" style="edgeStyle=orthogonalEdgeStyle;rounded=0;orthogonalLoop=1;jettySize=auto;html=1;" parent="mvioNwK95yMqdUQ73LqQ-36" source="LS44oTjPr1vH88ch1C3Q-208" target="mvioNwK95yMqdUQ73LqQ-69" edge="1">
          <mxGeometry relative="1" as="geometry" />
        </mxCell>
        <mxCell id="LS44oTjPr1vH88ch1C3Q-208" value="กิน" style="rounded=0;whiteSpace=wrap;html=1;" parent="mvioNwK95yMqdUQ73LqQ-36" vertex="1">
          <mxGeometry x="135" y="2050" width="135" height="30" as="geometry" />
        </mxCell>
        <mxCell id="LS44oTjPr1vH88ch1C3Q-211" value="" style="edgeStyle=orthogonalEdgeStyle;rounded=0;orthogonalLoop=1;jettySize=auto;html=1;" parent="mvioNwK95yMqdUQ73LqQ-36" source="LS44oTjPr1vH88ch1C3Q-209" target="LS44oTjPr1vH88ch1C3Q-208" edge="1">
          <mxGeometry relative="1" as="geometry" />
        </mxCell>
        <mxCell id="LS44oTjPr1vH88ch1C3Q-209" value="" style="strokeWidth=2;html=1;shape=mxgraph.flowchart.start_2;whiteSpace=wrap;" parent="mvioNwK95yMqdUQ73LqQ-36" vertex="1">
          <mxGeometry x="192.5" y="2010" width="20" height="20" as="geometry" />
        </mxCell>
        <mxCell id="LS44oTjPr1vH88ch1C3Q-210" style="edgeStyle=orthogonalEdgeStyle;rounded=0;orthogonalLoop=1;jettySize=auto;html=1;exitX=0.5;exitY=1;exitDx=0;exitDy=0;entryX=0.5;entryY=0;entryDx=0;entryDy=0;entryPerimeter=0;" parent="mvioNwK95yMqdUQ73LqQ-36" source="LS44oTjPr1vH88ch1C3Q-77" target="LS44oTjPr1vH88ch1C3Q-209" edge="1">
          <mxGeometry relative="1" as="geometry" />
        </mxCell>
        <mxCell id="LS44oTjPr1vH88ch1C3Q-212" style="edgeStyle=orthogonalEdgeStyle;rounded=0;orthogonalLoop=1;jettySize=auto;html=1;exitX=1;exitY=0.5;exitDx=0;exitDy=0;entryX=0.5;entryY=0;entryDx=0;entryDy=0;" parent="mvioNwK95yMqdUQ73LqQ-36" source="LS44oTjPr1vH88ch1C3Q-198" target="LS44oTjPr1vH88ch1C3Q-213" edge="1">
          <mxGeometry relative="1" as="geometry" />
        </mxCell>
        <mxCell id="LS44oTjPr1vH88ch1C3Q-216" value="" style="edgeStyle=orthogonalEdgeStyle;rounded=0;orthogonalLoop=1;jettySize=auto;html=1;" parent="mvioNwK95yMqdUQ73LqQ-36" source="LS44oTjPr1vH88ch1C3Q-213" target="LS44oTjPr1vH88ch1C3Q-215" edge="1">
          <mxGeometry relative="1" as="geometry" />
        </mxCell>
        <mxCell id="LS44oTjPr1vH88ch1C3Q-213" value="วางตะเกียบในถ้วย" style="rounded=0;whiteSpace=wrap;html=1;" parent="mvioNwK95yMqdUQ73LqQ-36" vertex="1">
          <mxGeometry x="425" y="1860" width="135" height="30" as="geometry" />
        </mxCell>
        <mxCell id="LS44oTjPr1vH88ch1C3Q-215" value="วางช้อนในถ้วย" style="rounded=0;whiteSpace=wrap;html=1;" parent="mvioNwK95yMqdUQ73LqQ-36" vertex="1">
          <mxGeometry x="425" y="1920" width="135" height="30" as="geometry" />
        </mxCell>
        <mxCell id="LS44oTjPr1vH88ch1C3Q-217" style="edgeStyle=orthogonalEdgeStyle;rounded=0;orthogonalLoop=1;jettySize=auto;html=1;exitX=0.5;exitY=1;exitDx=0;exitDy=0;entryX=1;entryY=0.5;entryDx=0;entryDy=0;entryPerimeter=0;" parent="mvioNwK95yMqdUQ73LqQ-36" source="LS44oTjPr1vH88ch1C3Q-215" target="LS44oTjPr1vH88ch1C3Q-209" edge="1">
          <mxGeometry relative="1" as="geometry" />
        </mxCell>
        <mxCell id="y8gUexfdqBoJj__hz6fE-1" value="&lt;font data-font-src=&quot;https://fonts.googleapis.com/css?family=Sarabun&quot; face=&quot;Sarabun&quot;&gt;เท็จ&lt;/font&gt;" style="edgeLabel;html=1;align=center;verticalAlign=middle;resizable=0;points=[];" vertex="1" connectable="0" parent="mvioNwK95yMqdUQ73LqQ-36">
          <mxGeometry x="495" y="344" as="geometry">
            <mxPoint x="-122" y="-54" as="offset" />
          </mxGeometry>
        </mxCell>
        <mxCell id="y8gUexfdqBoJj__hz6fE-2" value="" style="endArrow=classic;html=1;rounded=0;exitX=0.5;exitY=1;exitDx=0;exitDy=0;entryX=0.5;entryY=0;entryDx=0;entryDy=0;" edge="1" parent="mvioNwK95yMqdUQ73LqQ-36" source="LS44oTjPr1vH88ch1C3Q-85" target="LS44oTjPr1vH88ch1C3Q-94">
          <mxGeometry width="50" height="50" relative="1" as="geometry">
            <mxPoint x="205" y="400" as="sourcePoint" />
            <mxPoint x="255" y="350" as="targetPoint" />
          </mxGeometry>
        </mxCell>
        <mxCell id="y8gUexfdqBoJj__hz6fE-3" value="&lt;font data-font-src=&quot;https://fonts.googleapis.com/css?family=Sarabun&quot; face=&quot;Sarabun&quot;&gt;เท็จ&lt;/font&gt;" style="edgeLabel;html=1;align=center;verticalAlign=middle;resizable=0;points=[];" vertex="1" connectable="0" parent="mvioNwK95yMqdUQ73LqQ-36">
          <mxGeometry x="383.43" y="490" as="geometry">
            <mxPoint x="1" y="5" as="offset" />
          </mxGeometry>
        </mxCell>
        <mxCell id="y8gUexfdqBoJj__hz6fE-4" value="จริง" style="edgeLabel;html=1;align=center;verticalAlign=middle;resizable=0;points=[];fontFamily=Sarabun;fontSource=https%3A%2F%2Ffonts.googleapis.com%2Fcss%3Ffamily%3DSarabun;" vertex="1" connectable="0" parent="mvioNwK95yMqdUQ73LqQ-36">
          <mxGeometry x="294.38" y="530" as="geometry" />
        </mxCell>
        <mxCell id="y8gUexfdqBoJj__hz6fE-5" value="&lt;font data-font-src=&quot;https://fonts.googleapis.com/css?family=Sarabun&quot; face=&quot;Sarabun&quot;&gt;เท็จ&lt;/font&gt;" style="edgeLabel;html=1;align=center;verticalAlign=middle;resizable=0;points=[];" vertex="1" connectable="0" parent="mvioNwK95yMqdUQ73LqQ-36">
          <mxGeometry x="365.31" y="855" as="geometry">
            <mxPoint x="1" y="5" as="offset" />
          </mxGeometry>
        </mxCell>
        <mxCell id="y8gUexfdqBoJj__hz6fE-6" value="จริง" style="edgeLabel;html=1;align=center;verticalAlign=middle;resizable=0;points=[];fontFamily=Sarabun;fontSource=https%3A%2F%2Ffonts.googleapis.com%2Fcss%3Ffamily%3DSarabun;" vertex="1" connectable="0" parent="mvioNwK95yMqdUQ73LqQ-36">
          <mxGeometry x="281.88" y="905" as="geometry" />
        </mxCell>
        <mxCell id="y8gUexfdqBoJj__hz6fE-7" value="จริง" style="edgeLabel;html=1;align=center;verticalAlign=middle;resizable=0;points=[];fontFamily=Sarabun;fontSource=https%3A%2F%2Ffonts.googleapis.com%2Fcss%3Ffamily%3DSarabun;" vertex="1" connectable="0" parent="mvioNwK95yMqdUQ73LqQ-36">
          <mxGeometry x="113.75" y="160" as="geometry">
            <mxPoint x="5" y="-3" as="offset" />
          </mxGeometry>
        </mxCell>
        <mxCell id="y8gUexfdqBoJj__hz6fE-9" value="จริง" style="edgeLabel;html=1;align=center;verticalAlign=middle;resizable=0;points=[];fontFamily=Sarabun;fontSource=https%3A%2F%2Ffonts.googleapis.com%2Fcss%3Ffamily%3DSarabun;" vertex="1" connectable="0" parent="mvioNwK95yMqdUQ73LqQ-36">
          <mxGeometry x="212.5" y="1085" as="geometry" />
        </mxCell>
        <mxCell id="y8gUexfdqBoJj__hz6fE-10" value="จริง" style="edgeLabel;html=1;align=center;verticalAlign=middle;resizable=0;points=[];fontFamily=Sarabun;fontSource=https%3A%2F%2Ffonts.googleapis.com%2Fcss%3Ffamily%3DSarabun;" vertex="1" connectable="0" parent="mvioNwK95yMqdUQ73LqQ-36">
          <mxGeometry x="480" y="1285" as="geometry" />
        </mxCell>
        <mxCell id="y8gUexfdqBoJj__hz6fE-11" value="จริง" style="edgeLabel;html=1;align=center;verticalAlign=middle;resizable=0;points=[];fontFamily=Sarabun;fontSource=https%3A%2F%2Ffonts.googleapis.com%2Fcss%3Ffamily%3DSarabun;" vertex="1" connectable="0" parent="mvioNwK95yMqdUQ73LqQ-36">
          <mxGeometry x="212.5" y="1395" as="geometry" />
        </mxCell>
        <mxCell id="y8gUexfdqBoJj__hz6fE-12" value="&lt;font data-font-src=&quot;https://fonts.googleapis.com/css?family=Sarabun&quot; face=&quot;Sarabun&quot;&gt;เท็จ&lt;/font&gt;" style="edgeLabel;html=1;align=center;verticalAlign=middle;resizable=0;points=[];" vertex="1" connectable="0" parent="mvioNwK95yMqdUQ73LqQ-36">
          <mxGeometry x="281.88" y="1040" as="geometry">
            <mxPoint x="1" y="5" as="offset" />
          </mxGeometry>
        </mxCell>
        <mxCell id="y8gUexfdqBoJj__hz6fE-13" value="&lt;font data-font-src=&quot;https://fonts.googleapis.com/css?family=Sarabun&quot; face=&quot;Sarabun&quot;&gt;เท็จ&lt;/font&gt;" style="edgeLabel;html=1;align=center;verticalAlign=middle;resizable=0;points=[];" vertex="1" connectable="0" parent="mvioNwK95yMqdUQ73LqQ-36">
          <mxGeometry x="281.88" y="1350" as="geometry">
            <mxPoint x="1" y="5" as="offset" />
          </mxGeometry>
        </mxCell>
        <mxCell id="y8gUexfdqBoJj__hz6fE-14" value="&lt;font data-font-src=&quot;https://fonts.googleapis.com/css?family=Sarabun&quot; face=&quot;Sarabun&quot;&gt;เท็จ&lt;/font&gt;" style="edgeLabel;html=1;align=center;verticalAlign=middle;resizable=0;points=[];" vertex="1" connectable="0" parent="mvioNwK95yMqdUQ73LqQ-36">
          <mxGeometry x="550" y="1440" as="geometry">
            <mxPoint x="1" y="5" as="offset" />
          </mxGeometry>
        </mxCell>
        <mxCell id="y8gUexfdqBoJj__hz6fE-15" value="จริง" style="edgeLabel;html=1;align=center;verticalAlign=middle;resizable=0;points=[];fontFamily=Sarabun;fontSource=https%3A%2F%2Ffonts.googleapis.com%2Fcss%3Ffamily%3DSarabun;" vertex="1" connectable="0" parent="mvioNwK95yMqdUQ73LqQ-36">
          <mxGeometry x="470" y="1490" as="geometry" />
        </mxCell>
        <mxCell id="y8gUexfdqBoJj__hz6fE-17" value="" style="endArrow=classic;html=1;rounded=0;exitX=0;exitY=0.5;exitDx=0;exitDy=0;edgeStyle=orthogonalEdgeStyle;entryX=0;entryY=0.5;entryDx=0;entryDy=0;entryPerimeter=0;" edge="1" parent="mvioNwK95yMqdUQ73LqQ-36" source="LS44oTjPr1vH88ch1C3Q-136" target="LS44oTjPr1vH88ch1C3Q-138">
          <mxGeometry width="50" height="50" relative="1" as="geometry">
            <mxPoint x="465" y="1250" as="sourcePoint" />
            <mxPoint x="515" y="1200" as="targetPoint" />
          </mxGeometry>
        </mxCell>
        <mxCell id="y8gUexfdqBoJj__hz6fE-18" value="&lt;font data-font-src=&quot;https://fonts.googleapis.com/css?family=Sarabun&quot; face=&quot;Sarabun&quot;&gt;เท็จ&lt;/font&gt;" style="edgeLabel;html=1;align=center;verticalAlign=middle;resizable=0;points=[];" vertex="1" connectable="0" parent="mvioNwK95yMqdUQ73LqQ-36">
          <mxGeometry x="363.75" y="1240" as="geometry">
            <mxPoint x="27" y="-14" as="offset" />
          </mxGeometry>
        </mxCell>
        <mxCell id="y8gUexfdqBoJj__hz6fE-19" value="จริง" style="edgeLabel;html=1;align=center;verticalAlign=middle;resizable=0;points=[];fontFamily=Sarabun;fontSource=https%3A%2F%2Ffonts.googleapis.com%2Fcss%3Ffamily%3DSarabun;" vertex="1" connectable="0" parent="mvioNwK95yMqdUQ73LqQ-36">
          <mxGeometry x="214.37" y="1670" as="geometry" />
        </mxCell>
        <mxCell id="y8gUexfdqBoJj__hz6fE-20" value="จริง" style="edgeLabel;html=1;align=center;verticalAlign=middle;resizable=0;points=[];fontFamily=Sarabun;fontSource=https%3A%2F%2Ffonts.googleapis.com%2Fcss%3Ffamily%3DSarabun;" vertex="1" connectable="0" parent="mvioNwK95yMqdUQ73LqQ-36">
          <mxGeometry x="405" y="1670" as="geometry" />
        </mxCell>
        <mxCell id="y8gUexfdqBoJj__hz6fE-21" value="&lt;font data-font-src=&quot;https://fonts.googleapis.com/css?family=Sarabun&quot; face=&quot;Sarabun&quot;&gt;เท็จ&lt;/font&gt;" style="edgeLabel;html=1;align=center;verticalAlign=middle;resizable=0;points=[];" vertex="1" connectable="0" parent="mvioNwK95yMqdUQ73LqQ-36">
          <mxGeometry x="480" y="1630" as="geometry">
            <mxPoint x="1" y="5" as="offset" />
          </mxGeometry>
        </mxCell>
        <mxCell id="y8gUexfdqBoJj__hz6fE-22" value="&lt;font data-font-src=&quot;https://fonts.googleapis.com/css?family=Sarabun&quot; face=&quot;Sarabun&quot;&gt;เท็จ&lt;/font&gt;" style="edgeLabel;html=1;align=center;verticalAlign=middle;resizable=0;points=[];" vertex="1" connectable="0" parent="mvioNwK95yMqdUQ73LqQ-36">
          <mxGeometry x="293.43" y="1630" as="geometry">
            <mxPoint x="1" y="5" as="offset" />
          </mxGeometry>
        </mxCell>
        <mxCell id="y8gUexfdqBoJj__hz6fE-23" value="&lt;font data-font-src=&quot;https://fonts.googleapis.com/css?family=Sarabun&quot; face=&quot;Sarabun&quot;&gt;เท็จ&lt;/font&gt;" style="edgeLabel;html=1;align=center;verticalAlign=middle;resizable=0;points=[];" vertex="1" connectable="0" parent="mvioNwK95yMqdUQ73LqQ-36">
          <mxGeometry x="320" y="160" as="geometry">
            <mxPoint x="-122" y="-54" as="offset" />
          </mxGeometry>
        </mxCell>
        <mxCell id="mvioNwK95yMqdUQ73LqQ-70" value="&lt;font data-font-src=&quot;https://fonts.googleapis.com/css?family=Sarabun&quot; face=&quot;Sarabun&quot;&gt;โจทย์ปัญหา&lt;/font&gt;" style="swimlane;whiteSpace=wrap;html=1;" parent="WIyWlLk6GJQsqaUBKTNV-1" vertex="1">
          <mxGeometry x="-732.5" y="320" width="665" height="310" as="geometry" />
        </mxCell>
        <mxCell id="mvioNwK95yMqdUQ73LqQ-71" value="&lt;p style=&quot;line-height: 120%;&quot;&gt;&lt;font data-font-src=&quot;https://fonts.googleapis.com/css?family=Sarabun&quot; face=&quot;Sarabun&quot; style=&quot;font-size: 14px;&quot;&gt;&lt;b&gt;&lt;u&gt;โจทย์&lt;/u&gt;&lt;/b&gt; จงเขียน Flowchart เพื่อแสดงขั้นตอนการต้มบะหมี่กึ่งสำเร็จรูป (โดยผู้อ่าน Flowchart คือน้องของคุณ&lt;br&gt;&amp;nbsp; &amp;nbsp; &amp;nbsp; &amp;nbsp; &amp;nbsp; ที่มีอายุ 5 ขวบและกำลังหยิบ Flowchart มาต้มมาม่าให้คุณรับประทาน โดยคุณจะไม่พูดอะไรกับน้องเลย)&lt;br&gt;&lt;/font&gt;&lt;br&gt;&lt;/p&gt;&lt;p style=&quot;line-height: 120%;&quot;&gt;&lt;font face=&quot;Sarabun&quot;&gt;&lt;b&gt;&lt;u&gt;หมายเหตุ&lt;/u&gt;&lt;/b&gt; ทุกขั้นตอนควรมีการอธิบายอย่างละเอียด และเตรียมแก้ไขสำหรับเหตุการณ์ที่อาจผิดพลาดในทุกขั้นตอน&lt;br&gt;&amp;nbsp; &amp;nbsp; &amp;nbsp; &amp;nbsp; &amp;nbsp; เช่น&lt;br&gt;&amp;nbsp; &amp;nbsp; &amp;nbsp; &amp;nbsp; &amp;nbsp; - กรณีให้น้องไปซื้อของที่ตลาด แต่ของหมด ควรดำเนินการอย่างไร?&lt;br&gt;&amp;nbsp; &amp;nbsp; &amp;nbsp; &amp;nbsp; &amp;nbsp; - กรณีให้น้องต้มน้ำ แต่น้ำยังไม่เดือด ควรใส่บะหมี่สำเร็จรูปลงไปเลยไหม&lt;br&gt;&amp;nbsp; &amp;nbsp; &amp;nbsp; &amp;nbsp; &amp;nbsp; - กรณีระหว่างทำกับข้าวแล้วแก้สหมด ควรดำเนินการอย่างไร?&lt;br&gt;&amp;nbsp; &amp;nbsp; &amp;nbsp; &amp;nbsp; &amp;nbsp; - กรณีน้องไปซื้อของ แต่จำนวนเงินไม่พอ ควรทำอย่างไร?&lt;br&gt;&amp;nbsp; &amp;nbsp; &amp;nbsp; &amp;nbsp; &amp;nbsp; - กรณีน้องต้มบะหมี่เสร็จ แต่พึ่งมาทราบภายหลังว่าในซองบะหมี่ไม่มีเครื่องปรุงมาด้วย ต้องทำอย่างไร?&lt;/font&gt;&lt;/p&gt;" style="text;html=1;align=left;verticalAlign=top;resizable=0;points=[];autosize=1;strokeColor=none;fillColor=none;fontSize=14;" parent="mvioNwK95yMqdUQ73LqQ-70" vertex="1">
          <mxGeometry x="15" y="20" width="650" height="240" as="geometry" />
        </mxCell>
        <mxCell id="y8gUexfdqBoJj__hz6fE-0" value="จริง" style="edgeLabel;html=1;align=center;verticalAlign=middle;resizable=0;points=[];fontFamily=Sarabun;fontSource=https%3A%2F%2Ffonts.googleapis.com%2Fcss%3Ffamily%3DSarabun;" vertex="1" connectable="0" parent="WIyWlLk6GJQsqaUBKTNV-1">
          <mxGeometry x="-170" y="990" as="geometry">
            <mxPoint x="-260" y="-21" as="offset" />
          </mxGeometry>
        </mxCell>
      </root>
    </mxGraphModel>
  </diagram>
</mxfile>
